<svg xmlns="http://www.w3.org/2000/svg" xmlns:xlink="http://www.w3.org/1999/xlink" width="22.172" height="15.813" viewBox="0 0 22.172 15.813">
  <defs>
    <clipPath id="clip-path">
      <rect id="Rectangle_25" data-name="Rectangle 25" width="22.172" height="15.813" transform="translate(78.536 991.643)" fill="none"/>
    </clipPath>
  </defs>
  <g id="Group_29" data-name="Group 29" transform="translate(-78.536 -991.643)">
    <g id="Group_470" data-name="Group 470">
      <g id="Group_19" data-name="Group 19">
        <g id="Group_18" data-name="Group 18" clip-path="url(#clip-path)">
          <g id="Group_461" data-name="Group 461">
            <path id="Path_496" data-name="Path 496" d="M96.829,994.136a6.718,6.718,0,0,0-1.3-.878A15.39,15.39,0,0,0,92.561,992c-.168-.053-.153-.045-.061-.187a.387.387,0,0,1,.415-.167,9.392,9.392,0,0,1,2.784.681,10.825,10.825,0,0,1,2.172,1.212.687.687,0,0,1,.2.273,25.381,25.381,0,0,1,1.6,4.08,24.947,24.947,0,0,1,.74,3.22,20.814,20.814,0,0,1,.239,2.129c.023.41.048.819.05,1.231a.353.353,0,0,1-.069.217,6.144,6.144,0,0,1-1.871,1.681,7.564,7.564,0,0,1-3.121,1.015c-.211.023-.423.035-.634.051a.144.144,0,0,1-.138-.041q-.6-.726-1.2-1.447c.034-.06.084-.056.126-.069a6.618,6.618,0,0,0,2.943-1.74c.073-.082.142-.168.207-.257.017-.021.068-.036.031-.075s-.061,0-.086.016c-.175.1-.346.209-.524.307a14.163,14.163,0,0,1-3.077,1.232,13.2,13.2,0,0,1-2.654.451,14.438,14.438,0,0,1-8.115-1.975.414.414,0,0,0-.2-.075c.1.115.175.215.259.308a6.33,6.33,0,0,0,2.5,1.659,4.124,4.124,0,0,0,.392.136c.124.033.1.08.04.157-.325.4-.658.786-.967,1.194a.543.543,0,0,1-.543.238,7.771,7.771,0,0,1-3.939-1.325,5.967,5.967,0,0,1-1.42-1.367.509.509,0,0,1-.1-.338,22.9,22.9,0,0,1,.379-3.822,26.185,26.185,0,0,1,1.45-5c.238-.6.511-1.177.783-1.758a1.422,1.422,0,0,1,.6-.555,10.019,10.019,0,0,1,3.264-1.434,9.244,9.244,0,0,1,1.434-.217c.16-.012.223.086.293.186.045.064-.027.062-.059.072-.224.073-.45.142-.673.214a13.156,13.156,0,0,0-3.971,2.034c-.014.011-.033.017-.046.029a.118.118,0,0,0-.027.032c.068.036.118-.01.167-.033a19.5,19.5,0,0,1,2.031-.846,14.485,14.485,0,0,1,2.627-.655,18.5,18.5,0,0,1,3.472-.222,15.624,15.624,0,0,1,4.848.978,17.586,17.586,0,0,1,1.67.735l.245.134s-.2-.161-.195-.165m-8.811,6.6a2.156,2.156,0,0,0-.5-1.416,1.877,1.877,0,0,0-2.646-.217l-.035.031a2.2,2.2,0,0,0-.245,2.954,1.857,1.857,0,0,0,2.142.624,2.07,2.07,0,0,0,1.284-1.976m6.929.218a2.323,2.323,0,0,0-.455-1.559,1.852,1.852,0,0,0-2.594-.363,1.679,1.679,0,0,0-.2.171,2.218,2.218,0,0,0-.236,2.8,1.841,1.841,0,0,0,2.482.573,1.96,1.96,0,0,0,1-1.621" fill="#fff"/>
          </g>
        </g>
      </g>
    </g>
  </g>
</svg>
