<svg xmlns="http://www.w3.org/2000/svg" width="21.479" height="12.048" viewBox="0 0 21.479 12.048">
  <g id="Group_31" data-name="Group 31" transform="translate(-159.177 -993.525)">
    <g id="Group_467" data-name="Group 467">
      <g id="Group_43" data-name="Group 43">
        <path id="Path_82" data-name="Path 82" d="M165.223,1005.573a6.024,6.024,0,1,1,6-6.046c0,.055,0,.111,0,.166a5.99,5.99,0,0,1-6,5.88" fill="#fff"/>
        <path id="Path_83" data-name="Path 83" d="M171.9,999.52a8.821,8.821,0,0,1,.842-3.907,3.914,3.914,0,0,1,.973-1.274,1.761,1.761,0,0,1,2.336,0,4.731,4.731,0,0,1,1.384,2.265,9.853,9.853,0,0,1,.4,3.628,7.945,7.945,0,0,1-.823,3.285,3.3,3.3,0,0,1-1.236,1.433,1.72,1.72,0,0,1-2.046-.179,3.865,3.865,0,0,1-.978-1.269,8.85,8.85,0,0,1-.852-3.979" fill="#fff"/>
        <path id="Path_84" data-name="Path 84" d="M178.5,999.55a20.69,20.69,0,0,1,.4-3.812,5.309,5.309,0,0,1,.277-.841c.077-.192.169-.419.422-.413s.357.227.415.424a12.114,12.114,0,0,1,.414,1.624,19.941,19.941,0,0,1-.087,6.563,8.689,8.689,0,0,1-.324,1.094.846.846,0,0,1-.137.243c-.193.26-.389.258-.578-.01a1.813,1.813,0,0,1-.172-.33,7.409,7.409,0,0,1-.455-2.141c-.083-.8-.116-1.6-.17-2.4" fill="#fff"/>
      </g>
    </g>
  </g>
</svg>
