<svg xmlns="http://www.w3.org/2000/svg" width="17.059" height="17.076" viewBox="0 0 17.059 17.076">
  <g id="Group_33" data-name="Group 33" transform="translate(-237.486 -991.011)">
    <g id="Group_465" data-name="Group 465">
      <g id="Group_46" data-name="Group 46">
        <path id="Path_79" data-name="Path 79" d="M246.019,996.439a3.1,3.1,0,1,0,3.1,3.1,3.1,3.1,0,0,0-3.1-3.1h0" fill="#fff"/>
        <path id="Path_80" data-name="Path 80" d="M254.409,994.611a4.65,4.65,0,0,0-3.7-3.516c-.175-.042-.355-.06-.526-.084h-8.329c-.256.045-.518.07-.767.14a4.631,4.631,0,0,0-3.509,3.7,4.549,4.549,0,0,0-.087.96q-.011,3.734,0,7.466a4.639,4.639,0,0,0,2.041,3.964,4.543,4.543,0,0,0,2.692.836c2.533,0,5.066.028,7.6-.008a4.565,4.565,0,0,0,4.33-2.858,7.9,7.9,0,0,0,.359-1.326c.015-.058.022-.119.032-.178v-8.334c-.046-.256-.071-.517-.14-.766m-8.39,9.664a4.732,4.732,0,1,1,4.73-4.74,4.732,4.732,0,0,1-4.73,4.74m4.939-8.46a1.19,1.19,0,1,1,1.191-1.189v0a1.2,1.2,0,0,1-1.191,1.186" fill="#fff"/>
      </g>
    </g>
  </g>
</svg>
