<svg xmlns="http://www.w3.org/2000/svg" xmlns:xlink="http://www.w3.org/1999/xlink" width="112.802" height="115.705" viewBox="0 0 112.802 115.705">
  <defs>
    <linearGradient id="linear-gradient" y1="0.5" x2="1" y2="0.5" gradientUnits="objectBoundingBox">
      <stop offset="0" stop-color="#16f7bd"/>
      <stop offset="1" stop-color="#0399da"/>
    </linearGradient>
    <linearGradient id="linear-gradient-3" x1="0" y1="0.5" x2="1" y2="0.5" xlink:href="#linear-gradient"/>
    <linearGradient id="linear-gradient-5" x1="0" y1="0.5" x2="1" y2="0.5" xlink:href="#linear-gradient"/>
  </defs>
  <g id="Group_132" data-name="Group 132" transform="translate(-1900.523 1013.043)">
    <g id="Group_115" data-name="Group 115">
      <g id="Group_113" data-name="Group 113" opacity="0.3">
        <path id="Path_100" data-name="Path 100" d="M1928.75-928.059l-2.464,2.465.013.014,2.465-2.465Z" fill="#6d6e71"/>
        <rect id="Rectangle_642" data-name="Rectangle 642" height="3.485" transform="translate(1915.857 -992.341) rotate(-45)" fill="#6d6e71"/>
        <path id="Path_101" data-name="Path 101" d="M1991.991-916.207h0l-1.686-1.686h0Z" fill="#6d6e71"/>
        <path id="Path_102" data-name="Path 102" d="M1988.431-919.767l1.874,1.874h0l-1.874-1.874Z" fill="#6d6e71"/>
        <g id="Group_112" data-name="Group 112">
          <path id="Path_103" data-name="Path 103" d="M1987.668-915.6l-2.482-2.481a45.262,45.262,0,0,1-28.262,9.882,45.258,45.258,0,0,1-28.257-9.878l-2.482,2.482a48.741,48.741,0,0,0,30.739,10.884A48.74,48.74,0,0,0,1987.668-915.6Z" fill="#6d6e71"/>
          <path id="Path_104" data-name="Path 104" d="M1924.036-928.276l2.482-2.482a37.876,37.876,0,0,1-7.673-22.892,38.122,38.122,0,0,1,38.079-38.078,37.879,37.879,0,0,1,22.891,7.67l2.482-2.483a41.342,41.342,0,0,0-25.373-8.675,41.613,41.613,0,0,0-41.566,41.566A41.348,41.348,0,0,0,1924.036-928.276Z" fill="#6d6e71"/>
          <path id="Path_105" data-name="Path 105" d="M1956.924-1010.141a56.18,56.18,0,0,0-38.6,15.335q-1.271,1.194-2.466,2.465l2.465,2.465,2.8,2.8A48.791,48.791,0,0,0,1907.94-953.7a48.849,48.849,0,0,0,15.607,35.806l2.465-2.464-.005,0,2.755-2.755a41.405,41.405,0,0,0,28.162,11.029,41.613,41.613,0,0,0,41.565-41.566,41.4,41.4,0,0,0-11.028-28.161l-.013-.013-.006-.007,0,0,2.8-2.8,2.465-2.464q-1.18-1.263-2.445-2.442a48.792,48.792,0,0,0-33.335-13.138,48.79,48.79,0,0,0-33.335,13.138l-2.8-2.8a52.7,52.7,0,0,1,36.136-14.312,52.974,52.974,0,0,1,52.914,52.914,52.708,52.708,0,0,1-14.313,36.136l-2.756-2.756a48.788,48.788,0,0,0,13.138-33.335A48.738,48.738,0,0,0,1995-984.464l-2.481,2.481a45.264,45.264,0,0,1,9.9,28.288,45.373,45.373,0,0,1-14.579,33.337l5.219,5.22a52.708,52.708,0,0,1-36.136,14.312,52.974,52.974,0,0,1-52.914-52.914,52.667,52.667,0,0,1,12-33.516l-2.476-2.475a56.138,56.138,0,0,0-13.012,35.991,56.465,56.465,0,0,0,56.4,56.4,56.178,56.178,0,0,0,38.6-15.335q1.27-1.2,2.466-2.466a56.18,56.18,0,0,0,15.335-38.6A56.465,56.465,0,0,0,1956.924-1010.141Zm0,10.95a45.313,45.313,0,0,1,30.87,12.115l-2.8,2.8-2.465,2.465q1.29,1.175,2.468,2.464A37.926,37.926,0,0,1,1995-953.65a38.121,38.121,0,0,1-38.078,38.078,37.933,37.933,0,0,1-25.7-10.005c-.857-.786-1.681-1.608-2.463-2.468l-2.465,2.465-2.756,2.756a45.318,45.318,0,0,1-12.115-30.871A45.547,45.547,0,0,1,1956.924-999.191Z" fill="#6d6e71"/>
        </g>
      </g>
      <g id="Group_114" data-name="Group 114">
        <path id="Path_106" data-name="Path 106" d="M1956.919-960.019c-.032.007-.048.032-.068.052l-1.772,1.771-2.558,2.559c-.066.066-.066.066-.134,0q-1.207-1.209-2.416-2.416c-.11-.11-.109-.11,0-.222l1.664-1.665,1.827-1.827,1.848-1.847,1.533-1.533c.073-.073.073-.073.145,0q.558.558,1.117,1.117c.336.336.675.67,1.011,1.006.283.282.562.567.845.849s.573.57.859.855c.225.225.447.452.672.677.278.276.557.551.835.828.223.223.443.449.666.673l.912.913c.069.068.069.068,0,.134l-2.4,2.4c-.127.127-.127.127-.251,0l-4.264-4.263C1956.972-959.981,1956.953-960.011,1956.919-960.019Z" fill="url(#linear-gradient)"/>
        <path id="Path_107" data-name="Path 107" d="M1963.961-949.32a.082.082,0,0,1-.035.056c-.153.155-.306.31-.459.463l-.528.528q-.2.2-.4.4l-.511.513-.369.371c-.232.232-.463.464-.7.7s-.465.46-.7.692c-.382.382-.761.766-1.143,1.148q-.744.744-1.49,1.484-.318.316-.634.635c-.079.079-.079.079-.156,0l-1.345-1.345-1.863-1.863-1.852-1.852-1.848-1.848c-.074-.074-.074-.074,0-.149l2.454-2.451c.066-.066.066-.066.134,0l4.305,4.3c.1.1.079.1.179,0q2.148-2.146,4.3-4.294c.081-.081.081-.081.16,0l2.447,2.446A.174.174,0,0,1,1963.961-949.32Z" fill="url(#linear-gradient)"/>
        <path id="Path_108" data-name="Path 108" d="M1956.92-951.119a.127.127,0,0,1-.064-.049l-1.746-1.745c-.254-.254-.506-.509-.762-.76-.052-.051-.053-.08,0-.132q1.258-1.254,2.512-2.512c.049-.048.076-.042.121,0q1.257,1.26,2.517,2.517c.044.044.045.071,0,.115q-1.263,1.26-2.524,2.522A.12.12,0,0,1,1956.92-951.119Z" fill="url(#linear-gradient-3)"/>
        <path id="Path_109" data-name="Path 109" d="M1965.807-956.317a.173.173,0,0,1,.074.058q.809.807,1.614,1.614l.843.842c.066.067.066.069,0,.137l-1.385,1.385-1.06,1.06c-.08.079-.08.079-.157,0l-2.446-2.446c-.074-.074-.073-.074,0-.145l2.451-2.451A.172.172,0,0,1,1965.807-956.317Z" fill="url(#linear-gradient)"/>
        <path id="Path_110" data-name="Path 110" d="M1948.032-956.317a.169.169,0,0,1,.067.054l1.5,1.5q.479.48.959.959c.068.068.068.069,0,.135l-2.456,2.456c-.071.071-.072.071-.145,0l-2.42-2.42c-.1-.1-.1-.1,0-.2l1.5-1.5.928-.927C1947.984-956.287,1948-956.313,1948.032-956.317Z" fill="url(#linear-gradient-5)"/>
      </g>
      <path id="Path_111" data-name="Path 111" d="M2004.2-958.721a4.987,4.987,0,0,0-.843.072c-2.555-3.278-7.6-6.17-14.349-8.383,3.2-6.333,4.73-11.948,4.219-16.072a4.959,4.959,0,0,0,.647-.547,4.98,4.98,0,0,0,0-7.043,4.979,4.979,0,0,0-7.043,0,4.875,4.875,0,0,0-.546.647c-4.079-.506-9.617.982-15.866,4.115-2.223-7.017-5.168-12.283-8.521-14.937,0-.051,0-.1,0-.152a4.98,4.98,0,0,0-4.981-4.98,4.981,4.981,0,0,0-4.981,4.98q0,.077,0,.153c-3.317,2.625-6.235,7.807-8.45,14.712-6.448-3.317-12.175-4.918-16.377-4.429-.035-.037-.07-.073-.106-.109a4.98,4.98,0,0,0-7.043,0,4.98,4.98,0,0,0,0,7.043c.037.037.073.072.11.107-.489,4.2,1.112,9.929,4.428,16.376-6.9,2.215-12.087,5.133-14.712,8.45l-.152,0a4.981,4.981,0,0,0-4.981,4.981,4.982,4.982,0,0,0,4.981,4.981q.077,0,.153,0c2.625,3.317,7.807,6.235,14.711,8.45-3.317,6.448-4.917,12.175-4.429,16.377l-.109.106a4.98,4.98,0,0,0,0,7.043,4.98,4.98,0,0,0,7.044,0c.036-.037.072-.073.106-.11,4.247.494,10.053-1.146,16.586-4.536,2.2,6.633,5.068,11.6,8.31,14.128a4.891,4.891,0,0,0-.072.844,4.981,4.981,0,0,0,4.981,4.981,4.981,4.981,0,0,0,4.981-4.981,4.987,4.987,0,0,0-.072-.843c3.278-2.555,6.17-7.6,8.383-14.349,6.333,3.2,11.948,4.729,16.072,4.218a4.975,4.975,0,0,0,.547.648,4.981,4.981,0,0,0,7.044,0,4.981,4.981,0,0,0,0-7.044,4.963,4.963,0,0,0-.647-.546c.511-4.124-1.014-9.74-4.218-16.073,6.743-2.213,11.792-5.1,14.347-8.383a4.892,4.892,0,0,0,.844.072,4.982,4.982,0,0,0,4.981-4.981A4.981,4.981,0,0,0,2004.2-958.721Zm-17.068-29.1a3.273,3.273,0,0,1,.354-.957,3.26,3.26,0,0,1,.542-.714c.048-.048.1-.094.147-.139a3.292,3.292,0,0,1,4.5.138,3.292,3.292,0,0,1,.139,4.5c-.045.05-.091.1-.139.147a3.259,3.259,0,0,1-.714.542,3.277,3.277,0,0,1-.958.354,3.283,3.283,0,0,1-2.976-.9A3.285,3.285,0,0,1,1987.136-987.825Zm-14.2,2.936a32.254,32.254,0,0,1,10.676-3.184,13.5,13.5,0,0,1,1.849-.013,4.977,4.977,0,0,0,1.376,4.435,4.973,4.973,0,0,0,4.435,1.375,13.522,13.522,0,0,1-.013,1.85,32.283,32.283,0,0,1-3.184,10.676q-.483,1.041-1.029,2.106a92.059,92.059,0,0,0-13.31-2.79,94.161,94.161,0,0,0-2.718-13.522Q1971.984-984.448,1972.934-984.889Zm1.778,27.139q1.7,1.992,3.276,4.01-1.584,2.029-3.3,4.038.072-2.18.072-4.411Q1974.761-955.948,1974.712-957.75Zm4.552,5.677q.391.522.775,1.045a87.926,87.926,0,0,1,6.031,9.36,87.785,87.785,0,0,1-10.884,2.355q-.641.1-1.287.191c.28-2.366.5-4.811.642-7.321Q1977.048-949.259,1979.264-952.073Zm.774-4.379q-.383.523-.775,1.045-2.191-2.783-4.679-5.581c-.13-2.519-.331-4.977-.6-7.358q.6.087,1.2.179a87.786,87.786,0,0,1,10.884,2.355A87.782,87.782,0,0,1,1980.038-956.452Zm-15.751,20.325c2.486-.145,4.91-.359,7.255-.638q-.092.647-.191,1.288A87.813,87.813,0,0,1,1969-924.594a87.961,87.961,0,0,1-9.36-6.031q-.487-.357-.975-.722Q1961.467-933.589,1964.287-936.127ZM1957-932.619q-2.054-1.6-4.083-3.333,1.8.05,3.638.05,2.274,0,4.5-.076Q1959.037-934.233,1957-932.619Zm9.669-5.707q1.308-1.239,2.607-2.537,1.578-1.577,3.068-3.17-.205,2.631-.521,5.188Q1969.279-938.531,1966.665-938.326Zm1.171-3.974q-2.165,2.163-4.381,4.185-3.4.18-6.9.18-3.062,0-6.057-.138-2.535-2.281-5.01-4.755-2.163-2.164-4.185-4.381-.18-3.405-.18-6.9,0-3.09.141-6.115,2.037-2.236,4.224-4.424,2.472-2.471,5.01-4.754,2.994-.14,6.057-.139,3.495,0,6.9.181,2.214,2.019,4.381,4.185,2.47,2.471,4.754,5.009.14,2.994.139,6.057,0,3.465-.178,6.846Q1970.289-944.753,1967.836-942.3Zm-20.553,4.038q-2.658-.19-5.243-.492-.321-2.583-.53-5.244,1.239,1.308,2.538,2.607Q1945.657-939.781,1947.283-938.262Zm-5.834-25.154q.194-2.686.5-5.3,2.626-.307,5.333-.5-1.625,1.518-3.235,3.129Q1942.718-964.759,1941.449-963.416Zm11.464-8.112q2.028-1.731,4.083-3.332,2.039,1.613,4.054,3.358-2.223-.074-4.5-.075Q1954.715-971.577,1952.913-971.528Zm13.753,2.374q2.658.21,5.244.531.3,2.582.491,5.242-1.518-1.625-3.128-3.235Q1967.974-967.914,1966.666-969.154Zm4.685-3.6q.158,1.017.3,2.047c-2.378-.285-4.837-.5-7.36-.651q-2.811-2.533-5.626-4.779.487-.366.975-.723a87.463,87.463,0,0,1,9.544-6.132A89.44,89.44,0,0,1,1971.351-972.749Zm-17.551-29.3h0a3.293,3.293,0,0,1,3.123-2.262,3.293,3.293,0,0,1,3.123,2.262h0a3.276,3.276,0,0,1,.164,1.025c0,.07,0,.14-.007.21a3.248,3.248,0,0,1-.242,1.044,3.292,3.292,0,0,1-3.038,2.033,3.292,3.292,0,0,1-3.038-2.032,3.26,3.26,0,0,1-.242-1.045c-.005-.07-.007-.14-.007-.21A3.272,3.272,0,0,1,1953.8-1002.046Zm-7.58,14.213a32.247,32.247,0,0,1,5.3-9.8,14.186,14.186,0,0,1,1.007-1.052,4.978,4.978,0,0,0,4.4,2.646,4.981,4.981,0,0,0,4.4-2.646,14.18,14.18,0,0,1,1.006,1.052,32.226,32.226,0,0,1,5.3,9.8q.505,1.379.964,2.853a91.664,91.664,0,0,0-11.586,7.549,93.974,93.974,0,0,0-11.687-7.753Q1945.749-986.55,1946.22-987.833Zm-1.495,4.643a88.523,88.523,0,0,1,8.959,5.808q.83.606,1.657,1.237-2.824,2.22-5.665,4.745c-2.557.132-5.051.337-7.464.609q.135-.985.285-1.958A88.821,88.821,0,0,1,1944.725-983.19Zm-23.558-1.658a3.291,3.291,0,0,1-.609-.84h0a3.3,3.3,0,0,1,.609-3.808,3.3,3.3,0,0,1,3.808-.609h0a3.273,3.273,0,0,1,.84.609q.075.075.144.153a3.25,3.25,0,0,1,.567.91,3.293,3.293,0,0,1-.71,3.586,3.3,3.3,0,0,1-3.586.711,3.238,3.238,0,0,1-.91-.568C1921.268-984.75,1921.217-984.8,1921.167-984.848Zm.9,3.894a13.892,13.892,0,0,1-.032-1.456,4.98,4.98,0,0,0,4.983-1.241,4.981,4.981,0,0,0,1.24-4.983,14.16,14.16,0,0,1,1.456.034,32.2,32.2,0,0,1,10.676,3.184q1.239.573,2.509,1.236a93.575,93.575,0,0,0-2.767,13.644,93.563,93.563,0,0,0-13.644,2.767q-.663-1.269-1.237-2.509A32.233,32.233,0,0,1,1922.063-980.954Zm17.1,31.34q-1.776-2.049-3.416-4.126,1.629-2.061,3.392-4.1-.051,1.845-.051,3.726Q1939.087-951.838,1939.162-949.614Zm-4.7-5.78q-.6-.792-1.183-1.586a88.8,88.8,0,0,1-5.809-8.958,88.662,88.662,0,0,1,10.442-2.229q.972-.15,1.958-.284c-.27,2.392-.474,4.864-.606,7.4Q1936.719-958.224,1934.465-955.394Zm0,3.308q2.27,2.848,4.846,5.709c.147,2.523.366,4.983.65,7.361q-1.031-.14-2.046-.3a88.878,88.878,0,0,1-10.442-2.228,88.509,88.509,0,0,1,5.808-8.959Q1933.861-951.3,1934.465-952.086ZM1910.9-950.7a3.248,3.248,0,0,1-1.045.242c-.069.005-.139.007-.209.007a3.285,3.285,0,0,1-1.026-.163h0a3.293,3.293,0,0,1-2.261-3.123,3.293,3.293,0,0,1,2.261-3.123h0a3.286,3.286,0,0,1,1.026-.164c.07,0,.14,0,.209.007a3.25,3.25,0,0,1,1.045.242,3.292,3.292,0,0,1,2.033,3.038A3.292,3.292,0,0,1,1910.9-950.7Zm11.933,7.666a32.238,32.238,0,0,1-9.8-5.3,13.993,13.993,0,0,1-1.053-1.007,4.977,4.977,0,0,0,2.647-4.4,4.98,4.98,0,0,0-2.647-4.4,14.382,14.382,0,0,1,1.053-1.006,32.216,32.216,0,0,1,9.8-5.3q1.284-.47,2.65-.9a93.586,93.586,0,0,0,7.69,11.6,93.592,93.592,0,0,0-7.69,11.6Q1924.113-942.565,1922.83-943.036Zm3.7,23.99a3.261,3.261,0,0,1-.567.911c-.046.052-.094.1-.144.152a3.3,3.3,0,0,1-.84.61h0a3.29,3.29,0,0,1-3.807-.609,3.29,3.29,0,0,1-.609-3.807h0a3.3,3.3,0,0,1,.61-.84c.049-.05.1-.1.152-.144a3.3,3.3,0,0,1,.91-.567,3.291,3.291,0,0,1,3.586.711A3.291,3.291,0,0,1,1926.526-919.046Zm13.859-3.017a32.223,32.223,0,0,1-10.676,3.184,14.156,14.156,0,0,1-1.456.033,4.979,4.979,0,0,0-1.24-4.983,4.98,4.98,0,0,0-4.983-1.241,14.424,14.424,0,0,1,.033-1.455,32.219,32.219,0,0,1,3.184-10.676q.575-1.239,1.237-2.51a93.74,93.74,0,0,0,13.746,2.781,91.512,91.512,0,0,0,2.855,13.531Q1941.718-922.68,1940.385-922.063Zm2.112-13.414q-.091-.6-.178-1.2c2.38.266,4.837.467,7.357.6q2.833,2.52,5.665,4.745-.828.63-1.657,1.237a89.27,89.27,0,0,1-8.774,5.7A87.418,87.418,0,0,1,1942.5-935.477Zm17.707,29.22a3.29,3.29,0,0,1-3.28,3.085,3.291,3.291,0,0,1-3.281-3.086q-.006-.1-.006-.2a3.3,3.3,0,0,1,.122-.889,3.262,3.262,0,0,1,.427-.927,3.284,3.284,0,0,1,2.738-1.471,3.287,3.287,0,0,1,2.739,1.471,3.286,3.286,0,0,1,.426.927,3.3,3.3,0,0,1,.122.889C1960.211-906.392,1960.208-906.325,1960.2-906.257Zm7.424-14.136a32.22,32.22,0,0,1-5.3,9.8,13.318,13.318,0,0,1-1.3,1.317,4.974,4.974,0,0,0-4.108-2.164,4.971,4.971,0,0,0-4.108,2.165,13.318,13.318,0,0,1-1.3-1.318,32.241,32.241,0,0,1-5.3-9.8q-.361-.982-.7-2.016a94.116,94.116,0,0,0,11.484-7.64,91.847,91.847,0,0,0,11.385,7.439Q1968.023-921.472,1967.628-920.393Zm25.053-2.238q.07.07.138.147a3.291,3.291,0,0,1-.138,4.5,3.292,3.292,0,0,1-4.5.138q-.075-.066-.147-.138a3.257,3.257,0,0,1-.541-.714,3.284,3.284,0,0,1-.355-.958,3.283,3.283,0,0,1,.9-2.976,3.283,3.283,0,0,1,2.976-.9,3.265,3.265,0,0,1,.957.355A3.287,3.287,0,0,1,1992.681-922.631Zm-1.424-4.422a13.353,13.353,0,0,1,.013,1.849,4.976,4.976,0,0,0-4.435,1.375,4.971,4.971,0,0,0-1.374,4.436,13.529,13.529,0,0,1-1.85-.014,32.223,32.223,0,0,1-10.676-3.184q-1.043-.483-2.107-1.028a92.121,92.121,0,0,0,2.8-13.413,91.964,91.964,0,0,0,13.412-2.8q.546,1.065,1.029,2.107A32.246,32.246,0,0,1,1991.257-927.053Zm8.814-21.28a32.24,32.24,0,0,1-9.8,5.3q-1.078.4-2.217.763a91.983,91.983,0,0,0-7.5-11.467,91.9,91.9,0,0,0,7.5-11.467q1.139.367,2.218.763a32.218,32.218,0,0,1,9.8,5.3,13.525,13.525,0,0,1,1.317,1.3,4.974,4.974,0,0,0-2.164,4.108,4.973,4.973,0,0,0,2.164,4.108A13.409,13.409,0,0,1,2000.071-948.333Zm4.335-2.126c-.067,0-.134.006-.2.006a3.3,3.3,0,0,1-.888-.122,3.249,3.249,0,0,1-.927-.427,3.282,3.282,0,0,1-1.471-2.738,3.285,3.285,0,0,1,1.471-2.739,3.275,3.275,0,0,1,.927-.426,3.3,3.3,0,0,1,.888-.122c.068,0,.135,0,.2.007a3.29,3.29,0,0,1,3.086,3.28A3.292,3.292,0,0,1,2004.406-950.459Z" fill="url(#linear-gradient)"/>
      <path id="Path_112" data-name="Path 112" d="M1916.481-917.112l-6.4.863-.863,6.4-.863-6.4-6.4-.863,6.4-.863.863-6.4.863,6.4Z" fill="url(#linear-gradient)"/>
      <path id="Path_113" data-name="Path 113" d="M1917.517-925.343l-4,.539-.539,4-.539-4-4-.539,4-.539.539-4,.539,4Z" fill="url(#linear-gradient)"/>
      <path id="Path_114" data-name="Path 114" d="M2010.007-930.7l-6.4.863-.863,6.4-.863-6.4-6.4-.863,6.4-.863.863-6.4.863,6.4Z" fill="url(#linear-gradient)"/>
      <path id="Path_115" data-name="Path 115" d="M1983.36-997.824l-6.4.863-.863,6.4-.863-6.4-6.4-.863,6.4-.863.863-6.4.863,6.4Z" fill="url(#linear-gradient)"/>
      <path id="Path_116" data-name="Path 116" d="M1987.84-1008.5l-4,.539-.539,4-.539-4-4-.539,4-.539.539-4,.539,4Z" fill="url(#linear-gradient)"/>
      <path id="Path_117" data-name="Path 117" d="M2012.849-938.945l-4,.539-.539,4-.539-4-4-.539,4-.539.539-4,.539,4Z" fill="url(#linear-gradient)"/>
      <path id="Path_118" data-name="Path 118" d="M1925.9-953.8l-4,.539-.539,4-.539-4-4-.539,4-.539.539-4,.539,4Z" fill="url(#linear-gradient)"/>
    </g>
  </g>
</svg>
