<svg xmlns="http://www.w3.org/2000/svg" width="19.432" height="16.105" viewBox="0 0 19.432 16.105">
  <g id="Group_30" data-name="Group 30" transform="translate(-120.378 -991.497)">
    <g id="Group_466" data-name="Group 466">
      <g id="Group_42" data-name="Group 42">
        <path id="Path_81" data-name="Path 81" d="M139.131,997.917l-.243,1.458c-.362,2.193-.727,4.386-1.149,6.569-.021.108-.047.215-.07.322-.078.194-.136.394-.231.582a1.15,1.15,0,0,1-1.459.689,3.367,3.367,0,0,1-1.2-.576c-1.024-.725-2.084-1.4-3.117-2.109-.033-.023-.07-.04-.1-.06-.576-.424-1.18-.806-1.772-1.207a4.244,4.244,0,0,1-.593-.458.891.891,0,0,1-.212-1.242.865.865,0,0,1,.137-.153,12.932,12.932,0,0,1,1.083-1.088c1.425-1.348,2.881-2.662,4.261-4.056.18-.182.345-.378.517-.568a.3.3,0,0,0,.036-.371c-.065-.124-.182-.124-.3-.115a.846.846,0,0,0-.379.166c-1.2.75-2.376,1.553-3.555,2.341-1.281.857-2.556,1.723-3.837,2.58a3.491,3.491,0,0,1-1.588.632,4.3,4.3,0,0,1-1.421-.183c-.688-.16-1.357-.387-2.032-.594a6.646,6.646,0,0,1-1.069-.394.823.823,0,0,1-.326-.243c-.206-.3-.176-.547.161-.834a7.01,7.01,0,0,1,1.632-.836c.174-.083.352-.158.528-.236.379-.159.758-.315,1.135-.477q1.168-.5,2.333-1.009,2.007-.867,4.012-1.73c1.385-.594,2.77-1.19,4.17-1.752,1.146-.46,2.281-.946,3.464-1.309a2.234,2.234,0,0,1,1.161-.134c.489.109.641.323.7.833a5.563,5.563,0,0,1-.068,1.174c-.061.637-.148,1.27-.241,1.9-.115.783-.234,1.565-.35,2.347a1.279,1.279,0,0,0-.008.139" fill="#fff"/>
      </g>
    </g>
  </g>
</svg>
