<svg xmlns="http://www.w3.org/2000/svg" width="19.527" height="15.869" viewBox="0 0 19.527 15.869">
  <g id="Group_28" data-name="Group 28" transform="translate(-41.419 -991.615)">
    <g id="Group_464" data-name="Group 464">
      <path id="Path_78" data-name="Path 78" d="M58.947,995.566c.012.172.012.344.012.518a11.319,11.319,0,0,1-11.238,11.4h-.162a11.337,11.337,0,0,1-6.14-1.8,8.039,8.039,0,0,0,5.928-1.66,4.012,4.012,0,0,1-3.742-2.782,4,4,0,0,0,1.808-.069,4.007,4.007,0,0,1-3.209-3.929v-.05a3.982,3.982,0,0,0,1.818.5,4.01,4.01,0,0,1-1.24-5.348,11.374,11.374,0,0,0,8.255,4.185,4.009,4.009,0,0,1,6.826-3.653,8.053,8.053,0,0,0,2.544-.972,4.022,4.022,0,0,1-1.761,2.215,7.994,7.994,0,0,0,2.3-.63,8.152,8.152,0,0,1-2,2.075" fill="#fff"/>
    </g>
  </g>
</svg>
